<svg width="579" height="152" viewBox="0 0 579 152" fill="none" xmlns="http://www.w3.org/2000/svg">
<path d="M147.215 112.045C150.744 111.099 154.21 113.758 154.21 117.412V126.566C154.21 129.081 152.521 131.282 150.092 131.934L78.5439 151.105C77.6017 151.358 76.6092 151.358 75.667 151.105L4.11914 131.934C1.68983 131.283 3.92823e-05 129.081 0 126.566V117.412C0.000185725 113.758 3.46674 111.099 6.99609 112.045L75.667 130.445C76.6092 130.698 77.6017 130.698 78.5439 130.445L147.215 112.045ZM147.215 80.0908C150.744 79.1452 154.21 81.8051 154.21 85.459V93.2236C154.21 95.7387 152.521 97.9407 150.092 98.5918L78.5439 117.763C77.6017 118.015 76.6092 118.015 75.667 117.763L4.11914 98.5918C1.68968 97.9408 0 95.7388 0 93.2236V85.459C4.85429e-05 81.8051 3.46667 79.1451 6.99609 80.0908L75.667 98.4912C76.6092 98.7437 77.6017 98.7437 78.5439 98.4912L147.215 80.0908ZM76.5303 0.813459C77.6153 -0.271156 79.374 -0.271151 80.459 0.813459L143.166 63.5205C144.678 65.0329 143.987 67.6151 141.921 68.1689L105.051 78.0488C104.092 78.3055 103.069 78.0309 102.367 77.3291L89.3008 64.2627C83.3328 58.2947 73.6565 58.2947 67.6885 64.2627L54.6221 77.3291C53.9202 78.0309 52.8972 78.3055 51.9385 78.0488L15.0684 68.1689C13.0026 67.6151 12.3109 65.0329 13.8232 63.5205L76.5303 0.813459Z" fill="white"/>
<path d="M215.184 112.147H201.118L226.729 39.3997H242.998L268.644 112.147H254.578L235.147 54.3187H234.579L215.184 112.147ZM215.646 83.6237H254.009V94.2091H215.646V83.6237ZM287.515 39.3997V112.147H274.657V39.3997H287.515ZM321.466 133.744C316.848 133.744 312.881 133.117 309.566 131.862C306.251 130.63 303.586 128.973 301.574 126.889C299.561 124.805 298.164 122.496 297.382 119.962L308.962 117.156C309.483 118.221 310.241 119.275 311.235 120.317C312.23 121.383 313.568 122.259 315.249 122.946C316.954 123.656 319.097 124.011 321.679 124.011C325.326 124.011 328.345 123.123 330.737 121.347C333.128 119.595 334.324 116.706 334.324 112.68V102.343H333.685C333.022 103.67 332.051 105.031 330.772 106.428C329.517 107.826 327.848 108.998 325.764 109.945C323.703 110.892 321.11 111.366 317.984 111.366C313.793 111.366 309.992 110.383 306.582 108.418C303.196 106.428 300.496 103.468 298.483 99.5373C296.494 95.5826 295.499 90.6333 295.499 84.6894C295.499 78.6981 296.494 73.6423 298.483 69.5218C300.496 65.3776 303.208 62.2399 306.618 60.1086C310.028 57.9537 313.828 56.8762 318.02 56.8762C321.217 56.8762 323.845 57.4209 325.906 58.5102C327.99 59.5758 329.647 60.8664 330.879 62.382C332.11 63.8739 333.045 65.2829 333.685 66.609H334.395V57.5866H347.076V113.035C347.076 117.701 345.963 121.56 343.737 124.615C341.511 127.67 338.468 129.955 334.608 131.471C330.748 132.986 326.367 133.744 321.466 133.744ZM321.572 101.278C324.295 101.278 326.616 100.615 328.534 99.2886C330.452 97.9625 331.909 96.0562 332.903 93.5697C333.898 91.0832 334.395 88.0994 334.395 84.6183C334.395 81.1846 333.898 78.1771 332.903 75.5959C331.932 73.0147 330.488 71.0137 328.57 69.5928C326.675 68.1483 324.343 67.426 321.572 67.426C318.707 67.426 316.315 68.172 314.397 69.6639C312.479 71.1558 311.034 73.2042 310.063 75.8091C309.092 78.3903 308.607 81.3267 308.607 84.6183C308.607 87.9573 309.092 90.8819 310.063 93.3921C311.058 95.8786 312.514 97.8204 314.432 99.2176C316.374 100.591 318.754 101.278 321.572 101.278ZM381.053 113.213C375.725 113.213 371.107 112.041 367.2 109.696C363.293 107.352 360.261 104.072 358.106 99.857C355.975 95.6418 354.91 90.7162 354.91 85.0801C354.91 79.4441 355.975 74.5066 358.106 70.2677C360.261 66.0289 363.293 62.7372 367.2 60.3928C371.107 58.0484 375.725 56.8762 381.053 56.8762C386.381 56.8762 390.999 58.0484 394.907 60.3928C398.814 62.7372 401.833 66.0289 403.964 70.2677C406.119 74.5066 407.197 79.4441 407.197 85.0801C407.197 90.7162 406.119 95.6418 403.964 99.857C401.833 104.072 398.814 107.352 394.907 109.696C390.999 112.041 386.381 113.213 381.053 113.213ZM381.124 102.912C384.013 102.912 386.429 102.118 388.371 100.532C390.312 98.9216 391.757 96.7666 392.704 94.067C393.675 91.3674 394.161 88.3599 394.161 85.0446C394.161 81.7056 393.675 78.6863 392.704 75.9867C391.757 73.2634 390.312 71.0966 388.371 69.4863C386.429 67.876 384.013 67.0708 381.124 67.0708C378.164 67.0708 375.701 67.876 373.736 69.4863C371.794 71.0966 370.338 73.2634 369.367 75.9867C368.419 78.6863 367.946 81.7056 367.946 85.0446C367.946 88.3599 368.419 91.3674 369.367 94.067C370.338 96.7666 371.794 98.9216 373.736 100.532C375.701 102.118 378.164 102.912 381.124 102.912ZM415.11 132.608V57.5866H427.756V66.609H428.501C429.165 65.2829 430.1 63.8739 431.308 62.382C432.515 60.8664 434.149 59.5758 436.21 58.5102C438.27 57.4209 440.898 56.8762 444.095 56.8762C448.311 56.8762 452.111 57.9537 455.498 60.1086C458.908 62.2399 461.607 65.4013 463.597 69.5928C465.609 73.7607 466.616 78.8757 466.616 84.938C466.616 90.9293 465.633 96.0207 463.668 100.212C461.702 104.404 459.026 107.601 455.64 109.803C452.253 112.005 448.417 113.106 444.131 113.106C441.005 113.106 438.412 112.585 436.352 111.543C434.291 110.502 432.634 109.246 431.379 107.778C430.147 106.286 429.188 104.877 428.501 103.551H427.969V132.608H415.11ZM427.72 84.867C427.72 88.3954 428.217 91.4858 429.212 94.138C430.23 96.7903 431.687 98.8624 433.581 100.354C435.499 101.822 437.82 102.557 440.543 102.557C443.385 102.557 445.765 101.799 447.683 100.283C449.601 98.744 451.046 96.6482 452.017 93.996C453.011 91.32 453.508 88.277 453.508 84.867C453.508 81.4806 453.023 78.4731 452.052 75.8446C451.081 73.216 449.637 71.1558 447.719 69.6639C445.8 68.172 443.409 67.426 440.543 67.426C437.796 67.426 435.464 68.1483 433.546 69.5928C431.627 71.0374 430.171 73.0621 429.176 75.667C428.205 78.2719 427.72 81.3385 427.72 84.867ZM490.327 113.248C486.87 113.248 483.756 112.633 480.985 111.401C478.238 110.146 476.059 108.299 474.449 105.86C472.862 103.421 472.069 100.413 472.069 96.8377C472.069 93.7591 472.637 91.2135 473.774 89.2006C474.911 87.1877 476.462 85.5774 478.427 84.3697C480.393 83.162 482.607 82.2502 485.07 81.6345C487.556 80.9952 490.126 80.5334 492.778 80.2492C495.975 79.9177 498.568 79.6217 500.557 79.3612C502.546 79.077 503.991 78.6508 504.891 78.0824C505.814 77.4904 506.276 76.5787 506.276 75.3473V75.1341C506.276 72.4582 505.483 70.3861 503.896 68.9179C502.31 67.4497 500.024 66.7156 497.041 66.7156C493.891 66.7156 491.393 67.4023 489.546 68.7758C487.722 70.1493 486.491 71.7715 485.851 73.6423L473.845 71.9372C474.792 68.6219 476.355 65.8512 478.534 63.6252C480.713 61.3756 483.377 59.6942 486.526 58.5812C489.676 57.4445 493.157 56.8762 496.97 56.8762C499.598 56.8762 502.215 57.1841 504.82 57.7998C507.425 58.4155 509.805 59.4337 511.959 60.8546C514.114 62.2518 515.843 64.1581 517.146 66.5735C518.472 68.989 519.135 72.0083 519.135 75.6314V112.147H506.773V104.652H506.347C505.566 106.168 504.465 107.589 503.044 108.915C501.646 110.217 499.882 111.271 497.751 112.076C495.643 112.858 493.169 113.248 490.327 113.248ZM493.666 103.8C496.247 103.8 498.485 103.291 500.38 102.272C502.274 101.23 503.73 99.857 504.749 98.1519C505.791 96.4469 506.312 94.588 506.312 92.5751V86.1457C505.909 86.4773 505.222 86.7851 504.251 87.0693C503.304 87.3535 502.239 87.6021 501.054 87.8153C499.87 88.0284 498.698 88.2178 497.538 88.3836C496.377 88.5494 495.371 88.6914 494.519 88.8098C492.6 89.0703 490.884 89.4966 489.368 90.0886C487.852 90.6806 486.656 91.5095 485.78 92.5751C484.904 93.6171 484.466 94.9669 484.466 96.6245C484.466 98.9926 485.33 100.781 487.059 101.988C488.788 103.196 490.99 103.8 493.666 103.8ZM535.102 132.608C533.35 132.608 531.728 132.466 530.236 132.181C528.768 131.921 527.596 131.613 526.719 131.258L529.703 121.241C531.574 121.785 533.243 122.046 534.712 122.022C536.18 121.999 537.47 121.537 538.583 120.637C539.72 119.761 540.679 118.293 541.461 116.232L542.562 113.284L522.776 57.5866H536.417L548.991 98.7913H549.56L562.17 57.5866H575.845L554 118.754C552.981 121.643 551.632 124.118 549.95 126.178C548.269 128.262 546.209 129.849 543.77 130.938C541.354 132.051 538.465 132.608 535.102 132.608Z" fill="white"/>
</svg>
